<svg width="75" height="74" viewBox="0 0 75 74" fill="none" xmlns="http://www.w3.org/2000/svg">
<path d="M68.9516 19.0968H60.4839V0H7.25806V19.0968H6.04839C2.71351 19.0968 0 21.7741 0 25.0645V60.871C0 64.1614 2.71351 66.8387 6.04839 66.8387H21.7742V71.6129H16.9355V74H58.0645V71.6129H53.2258V66.8387H68.9516C72.2865 66.8387 75 64.1614 75 60.871V25.0645C75 21.7741 72.2865 19.0968 68.9516 19.0968ZM58.0645 28.6452H60.4839V35.8065H58.0645V28.6452ZM55.6452 31.0323H33.871V28.6452H55.6452V31.0323ZM31.4516 35.2779L24.5409 32.7212C24.3329 32.6437 24.1936 32.4455 24.1936 32.2258C24.1936 32.0061 24.3329 31.8079 24.542 31.7304L31.4516 29.1737V35.2779ZM33.871 33.4194H55.6452V35.8065H33.871V33.4194ZM62.9032 28.6452H64.1129C66.1135 28.6452 67.7419 30.2519 67.7419 32.2258C67.7419 34.1997 66.1135 35.8065 64.1129 35.8065H62.9032V28.6452ZM32.441 26.2581L23.6927 29.4949C22.5462 29.9186 21.7742 31.0165 21.7742 32.2258C21.7742 33.4351 22.5462 34.5331 23.6915 34.9567L32.441 38.1936H58.0645V50.129H9.67742V11.9355H58.0645V26.2581H32.441ZM58.0645 2.3871V9.54839H9.67742V2.3871H58.0645ZM6.04839 21.4839H7.25806V52.5161H60.4839V38.1936H64.1129C67.4478 38.1936 70.1613 35.5162 70.1613 32.2258C70.1613 28.9354 67.4478 26.2581 64.1129 26.2581H60.4839V21.4839H68.9516C70.9522 21.4839 72.5807 23.0906 72.5807 25.0645V57.2903H2.41935V25.0645C2.41935 23.0906 4.04781 21.4839 6.04839 21.4839ZM50.8065 71.6129H24.1936V66.8387H50.8065V71.6129ZM68.9516 64.4516H6.04839C4.04781 64.4516 2.41935 62.8449 2.41935 60.871V59.6774H72.5807V60.871C72.5807 62.8449 70.9522 64.4516 68.9516 64.4516Z" fill="white" fill-opacity="0.8"/>
<path d="M12.0968 4.7742H14.5161V7.1613H12.0968V4.7742Z" fill="white" fill-opacity="0.8"/>
<path d="M16.9355 4.7742H19.3548V7.1613H16.9355V4.7742Z" fill="white" fill-opacity="0.8"/>
<path d="M21.7742 4.7742H24.1936V7.1613H21.7742V4.7742Z" fill="white" fill-opacity="0.8"/>
<path d="M12.0968 23.871H26.6129V14.3226H12.0968V23.871ZM14.5161 16.7097H24.1935V21.4839H14.5161V16.7097Z" fill="white" fill-opacity="0.8"/>
<path d="M30.2419 14.3226V23.871H44.7581V14.3226H30.2419ZM42.3387 21.4839H32.6613V16.7097H42.3387V21.4839Z" fill="white" fill-opacity="0.8"/>
<path d="M12.0968 26.2581H20.5645V28.6452H12.0968V26.2581Z" fill="white" fill-opacity="0.8"/>
<path d="M12.0968 31.0323H19.3548V33.4194H12.0968V31.0323Z" fill="white" fill-opacity="0.8"/>
<path d="M12.0968 35.8065H20.5645V38.1936H12.0968V35.8065Z" fill="white" fill-opacity="0.8"/>
<path d="M12.0968 40.5807H55.6451V42.9678H12.0968V40.5807Z" fill="white" fill-opacity="0.8"/>
<path d="M53.2258 45.3548H55.6452V47.7419H53.2258V45.3548Z" fill="white" fill-opacity="0.8"/>
<path d="M12.0968 45.3548H50.8064V47.7419H12.0968V45.3548Z" fill="white" fill-opacity="0.8"/>
</svg>
