<svg width="74" height="75" viewBox="0 0 74 75" fill="none" xmlns="http://www.w3.org/2000/svg">
<path d="M20.2903 25.4032C20.2903 26.0713 19.7559 26.6129 19.0968 26.6129C18.4376 26.6129 17.9032 26.0713 17.9032 25.4032C17.9032 24.7352 18.4376 24.1935 19.0968 24.1935C19.7559 24.1935 20.2903 24.7352 20.2903 25.4032Z" fill="white"/>
<path d="M32.2258 25.4032C32.2258 26.0713 31.6914 26.6129 31.0323 26.6129C30.3731 26.6129 29.8387 26.0713 29.8387 25.4032C29.8387 24.7352 30.3731 24.1935 31.0323 24.1935C31.6914 24.1935 32.2258 24.7352 32.2258 25.4032Z" fill="white"/>
<path d="M29.8387 32.6613H27.4516C27.4516 33.9956 26.381 35.0806 25.0645 35.0806C23.748 35.0806 22.6774 33.9956 22.6774 32.6613H20.2903C20.2903 35.3299 22.4315 37.5 25.0645 37.5C27.6976 37.5 29.8387 35.3299 29.8387 32.6613Z" fill="white"/>
<path d="M70.4194 45.9677H41.7742C41.1034 45.9677 40.4827 46.1674 39.9442 46.494L32.2258 43.8857V41.3795C34.8635 39.6317 36.8374 36.9483 37.7028 33.7983C40.6593 33.4416 42.9677 30.9135 42.9677 27.8226V18.1452C42.9677 8.13992 34.9364 0 25.0645 0C15.1927 0 7.16129 8.13992 7.16129 18.1452V27.8226C7.16129 30.9135 9.46971 33.4416 12.4262 33.7983C13.2899 36.9495 15.2655 39.6317 17.9032 41.3795V43.8857L5.71248 48.0049C2.29618 49.1591 0 52.3877 0 56.0385V67.7419H38.4133C38.9075 69.1465 40.2205 70.1613 41.7742 70.1613H48.9355V72.5807H46.5484V75H65.6452V72.5807H63.2581V70.1613H70.4194C72.3933 70.1613 74 68.5328 74 66.5323V49.5968C74 47.5962 72.3933 45.9677 70.4194 45.9677ZM40.5806 49.5968C40.5806 48.9305 41.1156 48.3871 41.7742 48.3871H70.4194C71.0779 48.3871 71.6129 48.9305 71.6129 49.5968V62.9032H40.5806V49.5968ZM38.1936 49.5968V65.3226H26.2581V53.7267L31.2496 58.7857L37.7197 48.2926L38.3748 48.5141C38.2676 48.8579 38.1936 49.217 38.1936 49.5968ZM35.3909 47.5052L30.816 54.924L26.7523 50.8065L31.3545 46.142L35.3909 47.5052ZM38.1434 31.2449C38.1685 30.9123 38.1936 30.5804 38.1936 30.2419V24.4162C39.5794 24.9171 40.5806 26.2479 40.5806 27.8226C40.5806 29.4156 39.5555 30.7582 38.1434 31.2449ZM25.0645 2.41935C33.6198 2.41935 40.5806 9.47423 40.5806 18.1452V23.0152C39.8836 22.4806 39.0806 22.0802 38.1936 21.8976V21.7742C38.1936 20.4399 37.123 19.3548 35.8065 19.3548H14.3226C13.0061 19.3548 11.9355 20.4399 11.9355 21.7742V21.8965C11.0485 22.0802 10.2454 22.4794 9.54839 23.014V18.1452C9.54839 9.47423 16.5092 2.41935 25.0645 2.41935ZM9.54839 27.8226C9.54839 26.2479 10.5496 24.9171 11.9355 24.4162V30.2419C11.9355 30.5804 11.9605 30.9123 11.9856 31.2449C10.5735 30.7582 9.54839 29.4156 9.54839 27.8226ZM14.3226 30.2419V21.7742H35.8065V30.2419C35.8065 36.2443 30.988 41.129 25.0645 41.129C19.1411 41.129 14.3226 36.2443 14.3226 30.2419ZM25.0645 43.5484C26.7499 43.5484 28.3561 43.2135 29.8387 42.624V44.2572L25.0645 49.0959L20.2903 44.2572V42.624C21.7729 43.2135 23.3791 43.5484 25.0645 43.5484ZM18.7745 46.142L23.3768 50.8065L19.3142 54.924L14.7393 47.5052L18.7745 46.142ZM6.46777 50.2997L12.4093 48.2926L18.8794 58.7869L23.871 53.7267V65.3226H11.9355V56.8548H9.54839V60.4839H2.3871V56.0385C2.3871 53.4302 4.02706 51.1248 6.46777 50.2997ZM2.3871 62.9032H9.54839V65.3226H2.3871V62.9032ZM60.871 72.5807H51.3226V70.1613H60.871V72.5807ZM70.4194 67.7419H41.7742C41.1156 67.7419 40.5806 67.1985 40.5806 66.5323V65.3226H71.6129V66.5323C71.6129 67.1985 71.0779 67.7419 70.4194 67.7419Z" fill="white"/>
<path d="M61.5872 60.2417L67.6348 55.6452L61.5872 51.0486L60.1547 52.9836L63.6555 55.6452L60.1547 58.3067L61.5872 60.2417Z" fill="white"/>
<path d="M52.0388 58.3067L48.538 55.6452L52.0388 52.9836L50.6063 51.0486L44.5587 55.6452L50.6063 60.2417L52.0388 58.3067Z" fill="white"/>
<path d="M52.9299 60.1531L57.0636 50.2028L59.2648 51.1425L55.1305 61.0923L52.9299 60.1531Z" fill="white"/>
</svg>
