<svg width="75" height="74" viewBox="0 0 75 74" fill="none" xmlns="http://www.w3.org/2000/svg">
<path d="M20.6065 22.6599C20.6065 23.3185 20.0653 23.8525 19.3978 23.8525C18.7303 23.8525 18.1891 23.3185 18.1891 22.6599C18.1891 22.0013 18.7303 21.4673 19.3978 21.4673C20.0653 21.4673 20.6065 22.0013 20.6065 22.6599Z" fill="white" fill-opacity="0.8"/>
<path d="M32.694 22.6599C32.694 23.3185 32.1527 23.8525 31.4852 23.8525C30.8177 23.8525 30.2765 23.3185 30.2765 22.6599C30.2765 22.0013 30.8177 21.4673 31.4852 21.4673C32.1527 21.4673 32.694 22.0013 32.694 22.6599Z" fill="white" fill-opacity="0.8"/>
<path d="M25.4415 32.2009C24.1082 32.2009 23.024 31.1311 23.024 29.8156H20.6065C20.6065 32.4466 22.775 34.5861 25.4415 34.5861C28.1081 34.5861 30.2765 32.4466 30.2765 29.8156H27.859C27.859 31.1311 26.7748 32.2009 25.4415 32.2009Z" fill="white" fill-opacity="0.8"/>
<path d="M48.7328 46.8903L43.0432 52.504L48.7328 58.1178L50.442 56.4313L46.4617 52.504L50.442 48.5768L48.7328 46.8903Z" fill="white" fill-opacity="0.8"/>
<path d="M55.9852 48.5768L59.9656 52.504L55.9852 56.4313L57.6945 58.1178L63.3841 52.504L57.6945 46.8903L55.9852 48.5768Z" fill="white" fill-opacity="0.8"/>
<path d="M50.8133 59.4682L53.2266 45.1561L55.611 45.5475L53.1983 59.8595L50.8133 59.4682Z" fill="white" fill-opacity="0.8"/>
<path d="M53.2136 38.1925C45.2152 38.1925 38.7087 44.6128 38.7087 52.504C38.7087 60.3959 45.2152 66.8155 53.2136 66.8155C61.2121 66.8155 67.7185 60.3959 67.7185 52.504C67.7185 44.6128 61.2121 38.1925 53.2136 38.1925ZM53.2136 64.4303C46.5484 64.4303 41.1262 59.0804 41.1262 52.504C41.1262 45.9277 46.5484 40.5778 53.2136 40.5778C59.8788 40.5778 65.3011 45.9277 65.3011 52.504C65.3011 59.0804 59.8777 64.4303 53.2136 64.4303Z" fill="white" fill-opacity="0.8"/>
<path d="M72.0689 48.3013C71.5844 46.1641 70.7428 44.1557 69.5618 42.3143L70.9458 39.6L66.292 35.0083L63.5411 36.3739C61.6748 35.2075 59.6392 34.3788 57.4732 33.9001L56.504 31.0083H49.9221L48.9541 33.9001C47.9254 34.1284 46.9291 34.4394 45.9636 34.8237C44.4249 32.796 43.5726 30.3188 43.5726 27.7786V17.8894C43.5726 8.02518 35.439 0 25.4415 0C15.444 0 7.31038 8.02518 7.31038 17.8894V28.8245C7.31038 32.697 5.22046 36.3419 1.85275 38.3346L0.704796 39.0142L1.50866 40.0723C1.62552 40.2261 3.68652 42.8559 7.70464 44.3309L5.84313 44.9441C2.38393 46.0809 0.05793 49.2639 0.05793 52.8622V64.4017H35.995L35.4827 65.4086L40.1364 69.9998L42.8874 68.6342C44.7536 69.8006 46.7892 70.6298 48.9553 71.1079L49.9232 73.9998H56.5052L57.4743 71.1079C59.6404 70.6298 61.676 69.7994 63.5422 68.6342L66.2932 69.9998L70.947 65.4086L69.5629 62.6938C70.7451 60.8524 71.5856 58.8439 72.0701 56.7068L74.9999 55.7517V49.2575L72.0689 48.3013ZM43.7491 35.8847C43.4605 36.046 43.1677 36.1986 42.8862 36.3739L40.1353 35.0083L35.4815 39.6L36.8278 42.2415L32.694 40.8818V38.4109C35.3652 36.6878 37.3648 34.0422 38.2407 30.9366C39.3928 30.8009 40.4375 30.3525 41.298 29.6677C41.6049 31.8992 42.4388 34.0352 43.7491 35.8847ZM31.4274 49.2575V51.1088L27.2281 47.6287L31.8116 43.1063L35.7294 44.3944C35.1356 45.6406 34.6664 46.9416 34.3583 48.3013L31.4274 49.2575ZM25.4415 46.0186L20.6065 41.2481V39.6379C22.108 40.2191 23.7346 40.5493 25.4415 40.5493C27.1484 40.5493 28.7756 40.2191 30.2765 39.6379V41.2481L25.4415 46.0186ZM23.6538 47.7813L19.6168 51.7645L14.9836 44.4503L19.0702 43.1063L23.7323 47.705L23.6538 47.7813ZM25.4415 38.164C19.4426 38.164 14.5628 33.3492 14.5628 27.4304V19.082H36.3202V27.4304C36.3202 33.3492 31.4404 38.164 25.4415 38.164ZM38.6869 28.4192C38.7123 28.0913 38.7377 27.7641 38.7377 27.4304V21.6868C40.1412 22.1806 41.1551 23.4926 41.1551 25.0451C41.1551 26.6157 40.117 27.9393 38.6869 28.4192ZM25.4415 2.38525C34.1057 2.38525 41.1551 9.34068 41.1551 17.8894V20.3055C40.4493 19.7785 39.636 19.3837 38.7377 19.2037V16.6968H12.1453V19.2025C11.2471 19.3837 10.4337 19.7773 9.72786 20.3043V17.8894C9.72786 9.34068 16.7773 2.38525 25.4415 2.38525ZM12.1453 21.6868V27.4304C12.1453 27.7641 12.1707 28.0913 12.1961 28.4192C10.766 27.9393 9.72786 26.6157 9.72786 25.0451C9.72786 23.4926 10.7418 22.1806 12.1453 21.6868ZM4.31863 39.5628C7.44081 37.2206 9.39912 33.6142 9.67238 29.7405C10.5158 30.3857 11.5292 30.8068 12.6423 30.9378C13.5176 34.0446 15.5178 36.6889 18.1891 38.4121V40.8829L12.1536 42.8687C8.18329 42.5443 5.5734 40.7129 4.31863 39.5628ZM2.47541 52.8622C2.47541 50.2917 4.13625 48.0177 6.60803 47.2054L12.4511 45.2842C12.5225 45.2877 12.5951 45.2901 12.6665 45.2924L19.1776 55.5718L25.5117 49.3222L31.4274 54.2248V55.7529L34.3583 56.7079C34.785 58.5889 35.5045 60.3621 36.4713 62.0177H11.4507C10.3434 60.8908 9.72786 59.414 9.72786 57.8423C9.72786 56.238 10.36 54.7309 11.5109 53.5953L12.1453 52.9693V50.0903H9.72786V51.9828C8.16854 53.5586 7.31038 55.6347 7.31038 57.8423C7.31038 59.3319 7.70936 60.7592 8.44298 62.0165H2.47541V52.8622ZM72.5824 54.028L69.9678 54.8811L69.8374 55.5741C69.4048 57.8778 68.5065 60.0191 67.172 61.9391L66.7671 62.5196L68.0012 64.9398L65.8169 67.0945L63.3646 65.8768L62.7762 66.2763C60.8297 67.593 58.6601 68.4793 56.3252 68.9061L55.6229 69.0348L54.757 71.6146H51.6691L50.8044 69.0348L50.1021 68.9061C47.7672 68.4793 45.5976 67.593 43.6511 66.2763L43.0627 65.8768L40.6104 67.0945L38.426 64.9398L39.6602 62.5196L39.2553 61.9391C37.9208 60.0191 37.0225 57.8778 36.5899 55.5741L36.4595 54.8811L33.8449 54.028V50.9812L36.4595 50.1269L36.5899 49.4345C37.0225 47.1302 37.9208 44.9896 39.2553 43.069L39.6602 42.4884L38.426 40.0688L40.6104 37.9136L43.0627 39.1313L43.6511 38.7318C45.5976 37.4151 47.7672 36.5288 50.1021 36.1019L50.8044 35.9733L51.6691 33.3935H54.757L55.6229 35.9733L56.3252 36.1019C58.6601 36.5288 60.8297 37.4151 62.7762 38.7318L63.3646 39.1313L65.8169 37.9136L68.0012 40.0688L66.7671 42.4884L67.172 43.069C68.5065 44.9896 69.4048 47.1302 69.8374 49.4345L69.9678 50.1269L72.5824 50.9812V54.028Z" fill="white" fill-opacity="0.8"/>
</svg>
